<svg class="img-responsive" version="1.1" id="Layer_1" xmlns="http://www.w3.org/2000/svg" xmlns:xlink="http://www.w3.org/1999/xlink" x="0px" y="0px" width="265" height="72"
	 viewBox="0 0 265 72" enable-background="new 0 0 265 72" xml:space="preserve">
<g>
	<g>
		<path fill="#844896" d="M24.8,11L2.7,23.7v24.5L24.8,61l22.1-12.7V23.7L24.8,11z M43.1,46L24.8,56.6L6.6,46V25.9l18.2-10.5
			L43.1,26V46L43.1,46z"/>
		<path fill="#844896" d="M23.5,36.7L10,28.9v15.2l13.6,7.8V36.7z"/>
		<path fill="#844896" d="M38,45.1l-11.9-6.9v13.7L38,45.1z"/>
		<path fill="#844896" d="M38,26.9l-13.2-7.6l-13.2,7.6l13.2,7.6L38,26.9z"/>
	</g>
	<g>
		<g>
			<path d="M71.4,45.6c-5.1,0-9-4-9-9.3s4-9.3,9-9.3c3.2,0,6,1.4,7.5,4.3l3.1-2.7c-1.7-2.6-4.3-4.4-7.5-5.1
				c-8.8-1.9-17.1,5.3-16.1,14.3c0.7,6.6,6.2,11.6,13,11.6c4.5,0,8.5-2,10.7-5.6L79,41.2C77.5,44.2,74.7,45.6,71.4,45.6z"/>
			<path d="M93.9,29.8c-5.5,0-10,3.9-10,9.7c0,5.8,4.5,9.8,10,9.8c5.5,0,9.9-4,9.9-9.8C103.8,33.8,99.4,29.8,93.9,29.8z M93.9,45.9
				c-3.3,0-6.2-2.5-6.2-6.4c0-3.9,2.9-6.4,6.2-6.4c3.2,0,6.2,2.5,6.2,6.4C100,43.4,97.1,45.9,93.9,45.9z"/>
			<path d="M129.5,29.7c-3.1,0-5.4,1.3-6.9,3.4c0,0,0,0-0.1,0c-1.2-2.1-3.5-3.4-6.2-3.4c-2.6,0-4.6,0.9-5.9,2.6c0,0-0.1,0-0.1,0v-2
				c0,0,0,0,0,0h-3.8c0,0,0,0,0,0v18.5c0,0,0,0,0,0h3.8c0,0,0,0,0,0v-9.2c0-4.2,2-6.3,5-6.3c2.4,0,4.2,1.7,4.2,4.5v11c0,0,0,0,0,0
				h3.8c0,0,0,0,0,0v-9.2c0-4.2,2-6.3,5-6.3c2.4,0,4.2,1.7,4.2,4.5v11c0,0,0,0,0,0h3.8c0,0,0,0,0,0V37
				C136.6,32.6,133.4,29.7,129.5,29.7z"/>
			<path d="M163.4,29.7c-3.1,0-5.4,1.3-6.9,3.4c0,0,0,0-0.1,0c-1.2-2.1-3.5-3.4-6.2-3.4c-2.6,0-4.6,0.9-5.9,2.6c0,0-0.1,0-0.1,0v-2
				c0,0,0,0,0,0h-3.8c0,0,0,0,0,0v18.5c0,0,0,0,0,0h3.8c0,0,0,0,0,0v-9.2c0-4.2,2-6.3,5-6.3c2.4,0,4.2,1.7,4.2,4.5v11c0,0,0,0,0,0
				h3.8c0,0,0,0,0,0v-9.2c0-4.2,2-6.3,5-6.3c2.4,0,4.2,1.7,4.2,4.5v11c0,0,0,0,0,0h3.8c0,0,0,0,0,0V37
				C170.4,32.6,167.2,29.7,163.4,29.7z"/>
			<path d="M183.3,48.9h-4.2l-8-18.6h4.2l5.9,14l5.9-14h4.2L183.3,48.9z"/>
			<path d="M210.8,30.3h-3.8c0,0,0,0,0,0v2c0,0,0,0-0.1,0c-1.6-1.7-3.9-2.6-6.7-2.6c-4.9,0-9.2,4-9.2,9.8c0,5.9,4.4,9.8,9.2,9.8
				c2.8,0,5.1-1,6.7-2.6c0,0,0.1,0,0.1,0v2c0,0,0,0,0,0h3.8c0,0,0,0,0,0L210.8,30.3C210.8,30.3,210.8,30.3,210.8,30.3z M200.8,45.9
				c-3.4,0-6.1-2.4-6.1-6.4c0-3.9,2.7-6.4,6.1-6.4c3.1,0,6.1,2.5,6.1,6.4C206.9,43.5,203.9,45.9,200.8,45.9z"/>
			<path d="M232.3,30.3h-3.8c0,0,0,0,0,0v8.6c0,4.7-2.2,6.9-5.5,6.9c-2.7,0-4.5-2.1-4.5-5.1V30.3c0,0,0,0,0,0h-3.8c0,0,0,0,0,0v11.2
				c0,4.7,3,7.9,7.5,7.9c2.7,0,4.9-1,6.4-2.7c0,0,0.1,0,0.1,0v2.2c0,0,0,0,0,0h3.8c0,0,0,0,0,0L232.3,30.3
				C232.3,30.3,232.3,30.3,232.3,30.3z"/>
			<path d="M244.9,45.2c-0.7,0.3-1.6,0.5-2.2,0.5c-1.4,0-2.4-0.9-2.4-2.2v-22c0,0,0,0,0,0h-3.8c0,0,0,0,0,0v22.1
				c0,3.2,2.6,5.7,5.7,5.7c1.6,0,2.6-0.5,3.6-1c0,0,0,0,0,0L244.9,45.2C244.9,45.2,244.9,45.2,244.9,45.2z"/>
			<path d="M258,44.7C258,44.7,258,44.7,258,44.7c-1,0.6-2.2,1-3.2,1c-1.8,0-3.1-1.1-3.1-3.5v-8.7c0,0,0,0,0,0h6.3c0,0,0,0,0,0v-3.2
				c0,0,0,0,0,0h-6.3c0,0,0,0,0,0v-5.7c0,0,0,0,0,0h-3.8c0,0,0,0,0,0v5.7c0,0,0,0,0,0h-3.9c0,0,0,0,0,0v3.2c0,0,0,0,0,0h3.9
				c0,0,0,0,0,0v9c0,4.6,2.7,6.9,6.7,6.9c1.6,0,2.8-0.4,4.6-1.4c0,0,0,0,0,0L258,44.7z"/>
		</g>
		<g>
			<path d="M262.3,24c0,1.5-1.1,2.6-2.6,2.6c-1.5,0-2.7-1.1-2.7-2.6c0-1.4,1.2-2.6,2.7-2.6C261.1,21.4,262.3,22.6,262.3,24z
				 M257.6,24c0,1.1,0.8,2.1,2,2.1c1.1,0,2-0.9,2-2c0-1.1-0.8-2.1-2-2.1C258.5,21.9,257.6,22.9,257.6,24z M259.2,25.4h-0.6v-2.6
				c0.2,0,0.6-0.1,1-0.1c0.5,0,0.7,0.1,0.9,0.2c0.1,0.1,0.3,0.3,0.3,0.6c0,0.3-0.2,0.5-0.5,0.6v0c0.3,0.1,0.4,0.3,0.5,0.6
				c0.1,0.4,0.1,0.5,0.2,0.6h-0.6c-0.1-0.1-0.1-0.3-0.2-0.6c0-0.3-0.2-0.4-0.5-0.4h-0.3V25.4z M259.2,23.9h0.3
				c0.3,0,0.6-0.1,0.6-0.4c0-0.2-0.2-0.4-0.5-0.4c-0.2,0-0.3,0-0.3,0V23.9z"/>
		</g>
	</g>
</g>
</svg>
